<?xml version="1.0" standalone="no"?>
<!DOCTYPE svg PUBLIC "-//W3C//DTD SVG 20010904//EN"
 "http://www.w3.org/TR/2001/REC-SVG-20010904/DTD/svg10.dtd">
<svg version="1.0" xmlns="http://www.w3.org/2000/svg"
 width="1200.000000pt" height="1200.000000pt" viewBox="0 0 1200.000000 1200.000000"
 preserveAspectRatio="xMidYMid meet">

<g transform="translate(0.000000,1200.000000) scale(0.100000,-0.100000)"
fill="#000000" stroke="none">
<path d="M0 6000 l0 -6000 6000 0 6000 0 0 6000 0 6000 -6000 0 -6000 0 0
-6000z m6217 3330 c250 -41 503 -173 662 -346 110 -121 183 -248 235 -412 37
-117 47 -198 44 -347 l-3 -130 -75 0 -75 0 -6 165 c-8 201 -24 271 -90 403
-88 174 -227 316 -400 411 -126 69 -332 126 -455 126 l-54 0 0 -1275 0 -1275
578 -2 577 -3 3 -87 3 -88 -1161 0 -1160 0 0 305 0 305 300 0 c323 0 340 2
374 52 30 43 15 125 -28 147 -14 7 -127 12 -331 14 l-310 2 -3 93 -3 92 306 0
c340 0 354 2 380 64 18 42 5 93 -31 127 l-26 24 -314 3 -314 3 0 83 0 84 126
7 c70 4 197 6 283 5 221 -4 218 -4 252 29 24 24 29 38 29 76 0 38 -5 52 -29
76 l-29 29 -316 0 -316 0 0 150 c0 161 13 246 56 374 123 367 482 655 890 715
84 12 358 13 431 1z m2998 -1274 c18 -14 43 -43 56 -63 12 -21 39 -58 59 -83
57 -71 122 -172 208 -325 48 -86 130 -284 157 -380 9 -33 25 -82 35 -110 10
-27 28 -93 40 -145 12 -52 28 -122 35 -155 28 -123 39 -257 39 -510 1 -243
-15 -461 -33 -475 -4 -3 -15 -57 -25 -120 -10 -63 -25 -132 -33 -155 -8 -22
-25 -77 -38 -121 -46 -157 -159 -412 -239 -539 -100 -159 -224 -332 -262 -367
-26 -22 -67 -32 -108 -24 -25 5 -41 16 -57 42 -33 54 -22 89 63 202 40 53 76
99 79 102 6 4 35 52 101 165 10 17 45 84 77 150 101 203 168 412 217 675 35
187 44 568 20 775 -24 203 -81 458 -120 535 -9 18 -16 41 -16 50 0 22 -69 188
-122 294 -66 133 -132 235 -223 347 -47 59 -88 120 -91 137 -8 38 20 98 55
117 35 20 85 12 126 -19z m-6279 1 c20 -18 28 -35 31 -73 5 -50 5 -51 -63
-131 -104 -122 -213 -306 -318 -533 -59 -129 -140 -406 -170 -580 -48 -277
-49 -653 -2 -915 26 -141 82 -361 99 -382 5 -7 6 -25 3 -40 -4 -16 -3 -23 2
-16 5 8 14 -6 26 -40 10 -29 40 -99 67 -155 27 -57 49 -105 49 -107 0 -6 92
-160 121 -202 16 -23 29 -45 29 -50 0 -4 10 -19 23 -33 66 -74 129 -165 134
-196 12 -71 -36 -124 -112 -124 -29 0 -45 9 -81 43 -24 23 -56 61 -70 85 -14
23 -29 42 -34 42 -6 0 -10 7 -10 15 0 9 -7 18 -15 21 -8 4 -15 10 -15 15 0 5
-23 43 -52 86 -192 286 -350 729 -403 1133 -32 241 -28 571 10 791 34 197 54
288 79 358 14 41 26 81 26 89 0 45 155 389 237 526 29 49 53 91 53 94 0 3 17
28 39 56 21 28 55 76 76 106 20 30 54 74 75 98 36 39 43 42 89 42 38 0 56 -6
77 -23z m4219 -270 l0 -89 -290 1 -290 1 -22 26 c-42 47 -22 128 35 145 7 2
137 4 290 4 l277 0 0 -88z m1583 -180 c19 -17 50 -57 70 -87 20 -30 39 -57 42
-60 7 -7 25 -39 91 -163 36 -67 56 -116 53 -130 -2 -12 -1 -16 2 -8 4 9 23
-29 46 -95 91 -250 126 -448 135 -744 3 -126 1 -232 -5 -275 -6 -38 -18 -113
-25 -165 -14 -93 -21 -120 -70 -270 -70 -215 -120 -317 -241 -503 -78 -118
-97 -141 -135 -159 -39 -19 -48 -20 -79 -8 -48 17 -62 33 -69 74 -8 48 1 75
37 116 17 19 49 64 72 100 22 36 49 77 59 92 11 15 19 31 19 35 0 4 17 44 38
88 84 175 145 392 172 609 17 135 7 437 -18 581 -33 178 -84 354 -142 482 -40
87 -144 263 -177 299 -67 73 -82 142 -40 188 51 55 110 56 165 3z m-5329 11
c11 -11 18 -24 16 -28 -3 -5 2 -10 10 -14 10 -3 15 -19 15 -48 0 -33 -7 -51
-30 -78 -115 -132 -238 -375 -299 -590 -58 -206 -75 -333 -76 -565 0 -124 5
-239 12 -280 7 -38 17 -97 23 -130 19 -112 35 -180 45 -195 5 -8 15 -33 21
-55 11 -39 72 -185 98 -236 62 -121 94 -177 114 -198 13 -14 30 -38 38 -53 8
-16 18 -28 23 -28 13 0 31 -49 31 -86 0 -65 -93 -120 -156 -92 -57 26 -202
252 -282 439 -142 333 -186 548 -185 919 0 289 27 453 119 727 67 199 244 519
324 586 41 35 109 38 139 5z m3746 -233 l0 -90 -281 -3 -281 -3 -32 30 c-25
23 -31 37 -31 69 0 33 6 45 31 66 l31 26 282 -2 281 -3 0 -90z m1062 -200 c30
-12 47 -30 78 -83 62 -103 114 -213 128 -271 6 -28 15 -51 18 -51 6 0 14 -29
39 -132 37 -156 50 -406 30 -553 -43 -307 -183 -645 -291 -700 -47 -25 -87
-19 -120 16 -41 44 -40 101 2 158 39 55 101 187 128 276 61 200 62 209 68 361
10 264 -34 488 -137 694 -27 55 -72 134 -81 145 -15 15 -10 79 7 104 14 20 64
49 86 51 4 0 25 -7 45 -15z m-4338 -9 c31 -16 51 -54 51 -94 0 -29 -2 -33 -67
-143 -24 -39 -43 -76 -43 -81 0 -5 -7 -23 -16 -40 -9 -17 -25 -63 -35 -102
-11 -39 -23 -80 -28 -91 -33 -73 -50 -354 -32 -505 9 -82 41 -211 81 -330 15
-43 70 -163 79 -170 3 -3 19 -24 34 -47 61 -95 17 -193 -88 -193 -51 0 -103
57 -166 182 -223 443 -221 1003 4 1448 83 166 142 209 226 166z m3281 -180 c0
-78 -1 -84 -22 -90 -13 -3 -139 -6 -280 -6 l-257 0 -36 31 c-29 25 -35 38 -35
69 0 30 6 43 26 59 26 20 38 21 315 21 l289 0 0 -84z m-2559 -1091 c5 -570 5
-570 31 -675 83 -338 315 -637 628 -812 94 -52 229 -104 344 -133 286 -70 638
-58 906 32 194 64 398 192 535 334 128 134 201 245 268 414 34 85 43 118 69
240 6 29 13 280 17 610 l6 560 218 3 218 2 24 -24 c22 -22 25 -34 25 -101 0
-69 -2 -78 -26 -100 -25 -23 -35 -25 -120 -25 l-92 0 -5 -467 c-4 -458 -5
-470 -30 -578 -68 -295 -187 -508 -406 -726 -189 -189 -375 -302 -627 -382
-119 -39 -320 -77 -403 -77 l-51 0 0 -375 0 -375 489 0 c585 0 541 10 541
-125 0 -140 136 -125 -1152 -125 -1169 0 -1144 -1 -1162 45 -3 9 -6 48 -6 86
0 61 3 73 25 94 l24 25 491 0 490 0 0 375 0 375 -42 0 c-64 0 -237 27 -329 50
-279 72 -501 200 -714 415 -222 223 -333 422 -406 730 -20 83 -23 125 -28 560
l-6 470 -92 5 c-79 4 -95 8 -117 29 -23 22 -26 32 -26 96 0 122 8 125 275 122
l210 -2 6 -570z m1399 -466 l0 -801 98 7 c178 13 379 81 505 171 176 126 329
341 378 532 17 68 19 113 19 484 l0 409 78 -3 77 -3 3 -403 c3 -450 -4 -511
-67 -662 -91 -218 -298 -441 -509 -549 -77 -39 -216 -88 -303 -107 -120 -26
-429 -26 -549 -1 -406 88 -715 349 -847 717 l-38 105 -3 439 c-2 241 -1 445 2
452 4 12 102 14 581 14 l575 0 0 -801z"/>
</g>
</svg>
